<?xml version="1.0" encoding="UTF-8"?>
<!-- Sysible Controller mark — SES rebrand. Dark tile + green ring + hub&nodes
     (fleet topology). No hexagon. Font-free. -->
<svg xmlns="http://www.w3.org/2000/svg" width="128" height="128" viewBox="0 0 128 128">
  <defs><linearGradient id="t" x1="0" y1="0" x2="0" y2="1">
    <stop offset="0" stop-color="#18202c"/><stop offset="1" stop-color="#0b0e15"/></linearGradient></defs>
  <rect x="6" y="6" width="116" height="116" rx="27" fill="url(#t)"/>
  <rect x="6" y="6" width="116" height="116" rx="27" fill="none" stroke="#6ddb73" stroke-width="3.5"/>
  <line x1="64" y1="64" x2="94.0" y2="64.0" stroke="#9fb4dc" stroke-width="2" opacity="0.7"/><line x1="64" y1="64" x2="79.0" y2="90.0" stroke="#9fb4dc" stroke-width="2" opacity="0.7"/><line x1="64" y1="64" x2="49.0" y2="90.0" stroke="#9fb4dc" stroke-width="2" opacity="0.7"/><line x1="64" y1="64" x2="34.0" y2="64.0" stroke="#9fb4dc" stroke-width="2" opacity="0.7"/><line x1="64" y1="64" x2="49.0" y2="38.0" stroke="#9fb4dc" stroke-width="2" opacity="0.7"/><line x1="64" y1="64" x2="79.0" y2="38.0" stroke="#9fb4dc" stroke-width="2" opacity="0.7"/><circle cx="94.0" cy="64.0" r="6" fill="#eceff3"/><circle cx="79.0" cy="90.0" r="6" fill="#7aa2ff"/><circle cx="49.0" cy="90.0" r="6" fill="#eceff3"/><circle cx="34.0" cy="64.0" r="6" fill="#7aa2ff"/><circle cx="49.0" cy="38.0" r="6" fill="#eceff3"/><circle cx="79.0" cy="38.0" r="6" fill="#7aa2ff"/>
  <circle cx="64" cy="64" r="10" fill="#6ddb73"/>
<circle cx="96" cy="96" r="22" fill="#0b0e15"/><circle cx="96" cy="96" r="17" fill="#6ddb73"/><line x1="86" y1="96" x2="102" y2="96" stroke="#0a140e" stroke-width="6" stroke-linecap="round"/><path d="M98 88 L108 96 L98 104 Z" fill="#0a140e"/>
</svg>